#!OML:ASF H:\LiuWeirdWalks\Patient Classification 1\Patient 1\Session 1\male.ASF
:FULLY-SPECIFIED
:DEGREES
1236
root 2.35969 18.1431 18.2894 5.63101 5.13674 -5.51015
lowerback 11.2906 -0.0755055 3.27014
upperback 0.614319 0.655098 5.50367
thorax -5.73478 0.312679 3.85217
lowerneck -21.1649 0.997146 7.15171
upperneck 14.2926 1.45132 -11.6408
head 8.04659 -0.108345 -4.9388
rclavicle -5.1684e-015 1.59028e-014
rhumerus -21.9172 -32.5777 -6.48401
rradius 32.2009
rwrist -1.26043
rhand -22.1834 -7.32594
rfingers 7.12502
rthumb 4.23167 -37.2637
lclavicle -5.1684e-015 1.59028e-014
lhumerus -26.483 12.7674 27.2929
lradius 43.0239
lwrist 25.0319
lhand -25.0467 -2.10665
lfingers 7.12502
lthumb 1.46643 27.8681
rfemur 3.15293 -3.03908 24.2023
rtibia 13.3694
rfoot -10.76 -21.6387
rtoes -7.04836
lfemur -28.9788 1.32562 -8.26246
ltibia 23.4856
lfoot -6.2172 14.6126
ltoes -18.9759
1237
root 2.3956 18.114 18.3744 5.58402 4.94361 -5.87602
lowerback 11.2473 -0.093743 3.17496
upperback 0.59447 0.611006 5.41476
thorax -5.72908 0.29202 3.81802
lowerneck -20.9778 1.06517 7.23945
upperneck 14.2829 1.4875 -11.4344
head 8.01227 -0.0600297 -4.8739
rclavicle -6.16232e-015 -1.51076e-014
rhumerus -21.6845 -32.3698 -6.5829
rradius 32.2555
rwrist -1.4597
rhand -22.2246 -7.41067
rfingers 7.12502
rthumb 4.19186 -37.3492
lclavicle -6.16232e-015 -1.51076e-014
lhumerus -26.5521 12.6827 27.1382
lradius 42.8924
lwrist 25.1196
lhand -25.0418 -2.18929
lfingers 7.12502
lthumb 1.47124 27.7854
rfemur 3.52111 -3.25533 24.3867
rtibia 13.2924
rfoot -10.9888 -21.2562
rtoes -7.23649
lfemur -28.8978 1.23158 -7.88368
ltibia 23.7371
lfoot -6.06944 14.7871
ltoes -19.2289
1238
root 2.43305 18.0826 18.4607 5.53152 4.70428 -6.24029
lowerback 11.2179 -0.080535 3.08613
upperback 0.572198 0.610634 5.32444
thorax -5.73558 0.292679 3.77198
lowerneck -20.8692 1.10314 7.24671
upperneck 14.364 1.49811 -11.1672
head 8.01788 -0.0254407 -4.7815
rclavicle -1.64991e-014 -5.00937e-014
rhumerus -21.5343 -32.067 -6.61577
rradius 32.3511
rwrist -1.71188
rhand -22.2337 -7.44073
rfingers 7.12502
rthumb 4.18311 -37.3794
lclavicle -1.64991e-014 -5.00937e-014
lhumerus -26.5863 12.6452 27.0148
lradius 42.7618
lwrist 25.1678
lhand -25.0292 -2.28526
lfingers 7.12502
lthumb 1.48332 27.6893
rfemur 3.88029 -3.44999 24.5498
rtibia 13.2587
rfoot -11.2524 -20.8502
rtoes -7.41556
lfemur -28.7841 1.14931 -7.51301
ltibia 24.0829
lfoot -5.78249 14.8561
ltoes -19.4824
1239
root 2.47235 18.0508 18.5487 5.47683 4.433 -6.5713
lowerback 11.1789 -0.052199 2.97216
upperback 0.562802 0.625017 5.22169
thorax -5.72372 0.30109 3.72423
lowerneck -20.8351 1.13365 7.2218
upperneck 14.5039 1.50109 -10.8636
head 8.05455 0.00495961 -4.67478
rclavicle -2.70347e-014 -7.15625e-015
rhumerus -21.3507 -31.9319 -6.63294
rradius 32.3788
rwrist -1.91071
rhand -22.29 -7.54887
rfingers 7.12502
rthumb 4.12876 -37.4886
lclavicle -2.70347e-014 -7.15625e-015
lhumerus -26.5845 12.6771 26.8889
lradius 42.5924
lwrist 25.1498
lhand -25.0026 -2.39832
lfingers 7.12502
lthumb 1.50909 27.5761
rfemur 4.22447 -3.6527 24.6534
rtibia 13.2815
rfoot -11.5428 -20.4105
rtoes -7.60787
lfemur -28.6506 1.08863 -7.19481
ltibia 24.5075
lfoot -5.35347 14.8032
ltoes -19.6741
1240
root 2.51364 18.0202 18.6367 5.41946 4.14102 -6.86778
lowerback 11.1595 -0.0284147 2.82859
upperback 0.530523 0.631273 5.10107
thorax -5.74683 0.306055 3.67628
lowerneck -20.7424 1.17492 7.22958
upperneck 14.6607 1.51259 -10.5586
head 8.08785 0.0430109 -4.57168
rclavicle 1.47101e-014 1.03368e-014
rhumerus -21.1531 -31.7105 -6.69356
rradius 32.4244
rwrist -2.21638
rhand -22.4085 -7.74356
rfingers 7.12502
rthumb 4.01428 -37.6855
lclavicle 1.47101e-014 1.03368e-014
lhumerus -26.7288 12.7051 26.7177
lradius 42.6337
lwrist 25.1477
lhand -24.9867 -2.41476
lfingers 7.12502
lthumb 1.52442 27.5595
rfemur 4.53347 -3.86819 24.6998
rtibia 13.3896
rfoot -11.8368 -19.9501
rtoes -7.85701
lfemur -28.5228 1.06894 -6.93685
ltibia 25.0029
lfoot -4.82272 14.6479
ltoes -19.6706
1241
root 2.55584 17.9922 18.7235 5.36673 3.8252 -7.09813
lowerback 11.1713 0.027899 2.63908
upperback 0.515437 0.675047 4.96737
thorax -5.77119 0.330541 3.63452
lowerneck -20.7897 1.19485 7.16312
upperneck 14.8704 1.50552 -10.2205
head 8.16065 0.0677282 -4.45018
rclavicle 4.77083e-015 5.1684e-014
rhumerus -20.9962 -31.6762 -6.65847
rradius 32.4157
rwrist -2.35207
rhand -22.4796 -7.8833
rfingers 7.12502
rthumb 3.9456 -37.8265
lclavicle 4.77083e-015 5.1684e-014
lhumerus -26.7573 12.8705 26.6101
lradius 42.6101
lwrist 25.1283
lhand -25.0293 -2.38042
lfingers 7.12502
lthumb 1.48327 27.5942
rfemur 4.76907 -4.05471 24.6697
rtibia 13.6271
rfoot -12.1272 -19.5198
rtoes -8.17377
lfemur -28.4263 1.11834 -6.77375
ltibia 25.5605
lfoot -4.22474 14.441
ltoes -19.3828
1242
root 2.59779 17.9677 18.8074 5.32285 3.50459 -7.25422
lowerback 11.2161 0.100676 2.3814
upperback 0.513939 0.731878 4.81469
thorax -5.80088 0.363039 3.60926
lowerneck -20.9312 1.21402 7.08427
upperneck 15.0859 1.49563 -9.88565
head 8.25172 0.0882739 -4.32928
rclavicle 1.63003e-014 -1.94809e-014
rhumerus -20.8942 -31.6856 -6.57573
rradius 32.3972
rwrist -2.35824
rhand -22.4793 -7.87185
rfingers 7.12502
rthumb 3.94594 -37.8151
lclavicle 1.63003e-014 -1.94809e-014
lhumerus -26.575 13.2219 26.5148
lradius 42.2749
lwrist 24.9278
lhand -25.0246 -2.57468
lfingers 7.12502
lthumb 1.48782 27.3999
rfemur 4.88289 -4.21082 24.5679
rtibia 14.0681
rfoot -12.4206 -19.1507
rtoes -8.57046
lfemur -28.3875 1.2541 -6.717
ltibia 26.1712
lfoot -3.60313 14.2126
ltoes -18.7769
